PathFileType	4	(X/Y/Z)	C:/Users/opensim2020/Desktop/walking_exp_matlab/subject02_walking05_straight_04.trc																																																																																																																												
DataRate	CameraRate	NumFrames	NumMarkers	Units	OrigDataRate	OrigDataStartFrame	OrigNumFrames																																																																																																																								
100	100	5	42	mm	100	2818	220																																																																																																																								
Frame#	Time	LFHD			RFHD			LBHD			RBHD			C7			T10			CLAV			STRN			RBAK			LSHO			LUPA			LELB			LFRM			LWRA			LWRB			LFIN			RSHO			RUPA			RELB			RFRM			RWRA			RWRB			RFIN			LASI			RASI			LPSI			RPSI			LTHI			LKNE			LTIB			LANK			LHEE			LTOE			RTHI			RKNE			RTIB			RANK			RHEE			RTOE			*39			*40			*41		
		X1	Y1	Z1	X2	Y2	Z2	X3	Y3	Z3	X4	Y4	Z4	X5	Y5	Z5	X6	Y6	Z6	X7	Y7	Z7	X8	Y8	Z8	X9	Y9	Z9	X10	Y10	Z10	X11	Y11	Z11	X12	Y12	Z12	X13	Y13	Z13	X14	Y14	Z14	X15	Y15	Z15	X16	Y16	Z16	X17	Y17	Z17	X18	Y18	Z18	X19	Y19	Z19	X20	Y20	Z20	X21	Y21	Z21	X22	Y22	Z22	X23	Y23	Z23	X24	Y24	Z24	X25	Y25	Z25	X26	Y26	Z26	X27	Y27	Z27	X28	Y28	Z28	X29	Y29	Z29	X30	Y30	Z30	X31	Y31	Z31	X32	Y32	Z32	X33	Y33	Z33	X34	Y34	Z34	X35	Y35	Z35	X36	Y36	Z36	X37	Y37	Z37	X38	Y38	Z38	X39	Y39	Z39	X40	Y40	Z40	X41	Y41	Z41	X42	Y42	Z42
																																																																																																																															
83	0.82	-269.32739	1743.96545	-1483.62488	-279.10513	1724.21313	-1341.18579	-401.68744	1674.0752	-1500.05737	-423.78021	1654.24353	-1359.5929	-465.71609	1533.63782	-1421.07141	-522.55505	1258.44666	-1403.22168	-328.35059	1461.05334	-1440.1416	-279.93503	1289.74341	-1425.19739	-521.70697	1363.16821	-1343.92273	-411.19656	1498.56726	-1604.43457	-462.24362	1301.9812	-1677.89124	-487.3522	1163.45129	-1684.24329	-501.61386	1032.44641	-1697.91589	-465.39313	898.00024	-1669.31873	-511.45074	908.9563	-1700.72583	-505.37042	841.26697	-1701.6272	-377.76425	1507.02759	-1241.46033	-379.75284	1320.51672	-1143.63318	-341.96762	1178.72046	-1117.08838	-285.71317	1072.12415	-1099.28198	-210.67912	961.10999	-1119.95593	-252.85112	947.24805	-1083.5603	-199.77216	897.30328	-1081.9436	-295.17587	998.05695	-1540.9187	-294.41293	977.83667	-1285.39417	-503.74899	1041.4845	-1460.45825	-506.86667	1040.6134	-1345.29626	-295.99408	697.55042	-1616.48132	-267.33084	503.39941	-1591.79675	-338.27664	324.76471	-1580.23254	-349.61429	102.03651	-1553.14868	-371.71255	77.31303	-1493.55139	-211.5168	47.32448	-1598.58118	-386.51257	670.45929	-1239.07935	-406.15518	462.61292	-1290.10596	-464.4429	282.55124	-1290.07568	-500.50769	93.87118	-1337.57239	-539.51831	41.94497	-1394.31555	-351.40948	37.40938	-1322.7478	-373.8963	1812.94263	-1399.02637	NaN	NaN	NaN	NaN	NaN	NaN
84	0.83	-259.83173	1742.922	-1484.90332	-269.19949	1723.5426	-1342.25366	-392.30911	1673.18689	-1500.96277	-414.17166	1653.82068	-1360.31958	-456.29398	1533.01587	-1421.28333	-513.56152	1257.98828	-1403.7843	-318.99728	1460.27661	-1440.52686	-270.82425	1288.86707	-1425.07983	-512.27704	1362.71667	-1343.77893	-402.1752	1497.37305	-1604.35376	-455.4436	1301.29065	-1677.44885	-482.00467	1163.19495	-1683.76904	-498.04657	1032.38989	-1697.35681	-463.52487	897.56964	-1669.05701	-509.5195	909.10486	-1700.16638	-504.42734	841.44769	-1701.34534	-368.0463	1506.9928	-1241.93542	-368.90485	1320.90503	-1143.776	-328.90497	1179.35107	-1116.43018	-270.35181	1073.80652	-1099.41382	-193.08936	964.37146	-1120.68994	-234.8235	949.63074	-1084.2395	-180.50742	900.86121	-1083.15637	-285.46649	997.13385	-1540.99658	-286.58463	976.89246	-1284.99048	-494.6134	1040.79016	-1461.43896	-498.6217	1039.97168	-1346.37939	-285.59436	697.19122	-1616.52734	-256.1904	502.09998	-1591.31494	-317.70953	319.33136	-1581.55469	-318.48053	96.3436	-1556.09753	-340.30042	70.93703	-1496.87268	-177.2993	47.79145	-1600.17285	-381.5058	670.02185	-1239.54724	-403.21133	462.2688	-1290.70435	-462.76221	282.60831	-1290.37024	-500.14182	94.10336	-1337.81494	-539.36267	42.19571	-1394.58777	-351.29233	37.36127	-1322.68335	-364.08136	1812.29297	-1400.30542	NaN	NaN	NaN	NaN	NaN	NaN
85	0.84	-250.23936	1741.78223	-1486.2196	-259.50983	1722.97656	-1343.64807	-382.92935	1672.20056	-1501.87048	-404.98032	1653.22437	-1361.28503	-446.81088	1532.24548	-1421.56042	-504.53647	1257.30676	-1404.48181	-309.58704	1459.34399	-1440.93872	-261.66245	1287.91138	-1425.06384	-503.36816	1362.32788	-1344.3064	-393.39279	1496.28723	-1604.87939	-448.81161	1300.75806	-1677.28149	-476.27786	1162.65625	-1682.98975	-494.10434	1032.26038	-1696.677	-461.052	896.9635	-1668.95239	-507.19034	909.17334	-1699.71545	-502.94571	841.4444	-1700.92896	-358.05243	1506.53479	-1242.22974	-357.46005	1320.7323	-1143.37317	-315.96277	1179.89514	-1115.95471	-255.24635	1075.39587	-1099.85767	-175.88441	967.83392	-1121.9386	-216.29044	951.9845	-1085.09607	-161.65941	904.52283	-1084.67615	-275.81668	996.02112	-1541.26208	-278.70514	976.03906	-1284.74146	-485.4964	1039.91455	-1462.34729	-490.28842	1039.2312	-1347.50024	-275.36166	696.17865	-1616.59192	-245.10434	500.68967	-1590.83472	-297.45358	314.70197	-1583.51208	-287.68356	91.6729	-1559.09351	-308.83884	65.08267	-1500.47839	-143.52681	49.56873	-1601.54724	-376.33322	669.39752	-1240.04333	-400.06787	461.72217	-1291.04016	-461.15424	282.73044	-1290.69055	-499.79095	94.33624	-1338.08203	-539.11438	42.33908	-1395.06421	-351.22632	37.49139	-1322.60425	-354.31702	1811.64795	-1401.76843	NaN	NaN	NaN	NaN	NaN	NaN
86	0.85	-240.67976	1740.48608	-1487.53479	-249.68108	1722.18433	-1344.92554	-373.48392	1671.04578	-1502.77368	-395.09384	1652.53662	-1361.93982	-437.33307	1531.3678	-1421.99048	-495.5809	1256.57629	-1405.32654	-300.17313	1458.27295	-1441.45203	-252.40236	1286.80566	-1425.22656	-494.02649	1361.58765	-1344.76318	-384.21756	1494.90564	-1605.00183	-441.47125	1299.79529	-1677.03162	-470.74139	1162.36023	-1682.8136	-489.99585	1032.05676	-1696.3894	-458.32907	896.45837	-1669.09717	-504.55762	909.13251	-1699.26648	-501.12924	841.1828	-1700.48352	-348.58862	1506.06958	-1243.0979	-345.94061	1320.7251	-1143.19775	-303.14355	1180.11243	-1115.66357	-240.0282	1076.85315	-1099.93945	-158.84149	970.96735	-1123.06787	-198.92503	954.12445	-1086.32825	-142.94858	907.83417	-1085.91235	-266.06427	994.75952	-1541.55383	-270.62906	975.23187	-1284.65112	-476.30972	1038.83435	-1463.39404	-481.92557	1038.35876	-1348.71521	-265.59192	695.2301	-1616.83691	-234.0929	499.40237	-1590.46863	-277.55045	310.79395	-1585.62476	-257.40912	88.07841	-1562.17822	-277.50461	60.14929	-1503.30774	-110.70071	52.45452	-1602.96216	-371.02783	668.73035	-1240.51794	-396.62091	461.40414	-1291.4574	-459.4671	282.91904	-1291.03894	-499.22528	94.56553	-1338.24036	-538.8891	42.69265	-1395.1969	-351.04816	37.33765	-1322.41895	-344.51578	1810.75525	-1403.13574	-2846.11597	1033.70337	3356.83813	NaN	NaN	NaN
87	0.86	-230.80939	1739.13806	-1488.74133	-239.90167	1721.12366	-1346.16406	-364.01123	1669.82642	-1503.81641	-385.11523	1651.69421	-1362.71057	-427.80478	1530.36194	-1422.52563	-486.26642	1255.57788	-1406.01611	-290.7403	1457.05725	-1442.00586	-243.13156	1285.54187	-1425.48889	-484.6814	1360.74854	-1345.19373	-375.28033	1493.59009	-1605.70691	-434.13974	1298.83228	-1676.89612	-464.82388	1161.84705	-1682.3938	-485.63135	1031.85449	-1695.9137	-455.13113	895.74243	-1669.46265	-501.47546	909.06702	-1699.13416	-499.10797	841.17468	-1700.62976	-338.86118	1505.45337	-1243.7782	-334.92215	1320.42932	-1143.39539	-290.48166	1180.2124	-1115.43799	-225.47798	1078.11646	-1100.71204	-142.01503	973.81451	-1124.27295	-181.41241	956.14795	-1087.28516	-124.76953	911.27405	-1087.63562	-256.38895	993.38269	-1541.92273	-262.61237	974.3399	-1284.66553	-467.11008	1037.60901	-1464.50098	-473.43677	1037.40833	-1349.96814	-256.00699	693.73346	-1617.04199	-223.0497	498.13306	-1590.21094	-257.96588	307.53259	-1587.46716	-227.93187	85.57871	-1565.27734	-247.8161	56.82912	-1506.87976	-78.85978	55.78164	-1604.12	-365.53949	668.09668	-1240.97656	-393.26709	460.798	-1291.8219	-457.85089	283.10242	-1291.32935	-498.85199	94.90459	-1338.48474	-538.62994	43.01152	-1395.45349	-351.0184	37.56757	-1322.29761	-334.73978	1809.73438	-1404.54517	NaN	NaN	NaN	NaN	NaN	NaN
